<svg version="1.1" xmlns="http://www.w3.org/2000/svg" style="display: block;" viewBox="0 0 2048 2048" width="1254" height="1254" preserveAspectRatio="none">
<defs>
	<linearGradient id="Gradient1" gradientUnits="userSpaceOnUse" x1="1026.28" y1="494.873" x2="1018.6" y2="688.915">
		<stop class="stop0" offset="0" stop-opacity="1" stop-color="rgb(112,180,9)"/>
		<stop class="stop1" offset="1" stop-opacity="1" stop-color="rgb(55,129,12)"/>
	</linearGradient>
	<linearGradient id="Gradient2" gradientUnits="userSpaceOnUse" x1="1069.14" y1="1265.72" x2="1002.41" y2="1531.09">
		<stop class="stop0" offset="0" stop-opacity="1" stop-color="rgb(140,202,3)"/>
		<stop class="stop1" offset="1" stop-opacity="1" stop-color="rgb(30,110,16)"/>
	</linearGradient>
	<linearGradient id="Gradient3" gradientUnits="userSpaceOnUse" x1="634.328" y1="456.254" x2="718.799" y2="606.419">
		<stop class="stop0" offset="0" stop-opacity="1" stop-color="rgb(111,178,8)"/>
		<stop class="stop1" offset="1" stop-opacity="1" stop-color="rgb(80,151,12)"/>
	</linearGradient>
	<linearGradient id="Gradient4" gradientUnits="userSpaceOnUse" x1="976.924" y1="952.804" x2="982.826" y2="1240.99">
		<stop class="stop0" offset="0" stop-opacity="1" stop-color="rgb(76,149,11)"/>
		<stop class="stop1" offset="1" stop-opacity="1" stop-color="rgb(8,90,19)"/>
	</linearGradient>
</defs>
<path transform="translate(0,0)" fill="rgb(255,255,255)" d="M 0 0 L 2048 0 L 2048 2048 L 0 2048 L 0 0 z"/>
<path transform="translate(0,0)" fill="rgb(0,35,72)" d="M 1303.23 789.105 C 1346.23 788.974 1386.56 786.495 1417.49 821.925 C 1426.73 832.507 1435.06 844.407 1443.36 855.71 L 1478.55 903.71 L 1594.46 1060.75 C 1597.97 1042.42 1600.75 1019.92 1603.73 1001.14 L 1624.63 869.475 C 1628.8 842.913 1632.5 815.538 1637.42 789.204 L 1759.59 789.303 C 1758 804.734 1754.51 823.754 1752.07 839.37 L 1737.39 931.911 C 1721.34 1031.87 1704.13 1133.73 1689.51 1233.76 C 1689.21 1236.39 1689.37 1238.02 1687.58 1239.91 C 1685.41 1240.77 1681.68 1241.87 1679.36 1241.66 C 1655.67 1239.64 1632.37 1242.37 1608.64 1240.41 C 1582.8 1238.27 1576.93 1224.15 1562.8 1205.35 L 1529.72 1161.34 L 1393.53 979.792 C 1388.83 1021.45 1379.7 1063.75 1373.79 1105.37 C 1367.41 1150.3 1358.11 1195.66 1352.54 1240.63 L 1232.02 1240.66 L 1285.31 904.051 C 1291.62 865.788 1297.59 827.471 1303.23 789.105 z"/>
<path transform="translate(0,0)" fill="rgb(0,35,72)" d="M 359.627 786.483 C 378.63 787.43 402.568 786.828 421.89 786.833 L 535.513 786.839 L 856.325 787.889 C 814.314 821.298 793.225 841.831 763.58 887.575 L 635.036 887.653 C 631.026 909.036 627.935 933.698 624.467 955.589 L 603.354 1087.76 L 578.607 1241.04 L 448.395 1241.05 L 484.017 1017.44 C 490.232 977.808 496.659 925.632 504.413 887.843 C 442.703 886.758 377.661 887.81 315.719 887.731 C 326.386 860.345 339.628 833.18 350.745 805.923 C 353.354 799.527 356.409 792.557 359.627 786.483 z"/>
<path transform="translate(0,0)" fill="rgb(0,35,72)" d="M 1564.99 1273.74 L 1673.99 1273.62 C 1668.56 1286.16 1662.93 1298.62 1657.11 1310.99 C 1575.56 1483.52 1432.71 1621.97 1251.78 1686.22 C 1072.13 1748.12 875.361 1737.09 703.745 1655.51 C 682.174 1645.4 633.51 1618.12 616.127 1603.33 C 622.654 1605.69 633.393 1612.51 640.041 1616.31 C 650.504 1622.36 661.21 1627.98 672.133 1633.15 C 825.622 1706.24 1004.22 1710.44 1163.58 1653.82 C 1350.29 1587.49 1481 1450.3 1564.99 1273.74 z"/>
<path transform="translate(0,0)" fill="rgb(0,35,72)" d="M 615.663 424.06 C 735.935 317.448 920.543 263.444 1079.68 272.918 C 1258.29 283.956 1425.2 365.509 1543.67 499.629 C 1609.63 573.54 1659.13 660.627 1688.89 755.12 L 1593.67 755.136 C 1544.42 594.475 1432.65 460.359 1283.49 382.952 C 1134.28 304.296 959.861 288.372 798.869 338.708 C 730.512 359.835 675.141 388.152 616.736 428.541 L 615.663 424.06 z"/>
<path transform="translate(0,0)" fill="url(#Gradient4)" d="M 781.61 932.76 L 783.048 933.243 C 780.787 938.481 773.656 951.597 774.653 956.906 C 778.718 963.068 789.431 967.457 795.228 972.338 C 814.968 988.961 839.677 995.373 860.965 1009.85 C 865.802 1013.13 871.722 1020.07 876.844 1020.42 C 876.99 1016.42 877.17 1014.66 877.9 1010.72 L 879.273 1010.85 C 878.282 1019.47 877.537 1027.35 877.285 1036.01 C 875.741 1089.11 909.898 1134.39 962.629 1144.63 C 994.908 1150.9 1031.71 1148.79 1065.08 1148.8 L 1209.5 1148.83 C 1187.01 1177.25 1155.02 1213.28 1130.77 1240.83 L 1013.27 1240.88 C 982.046 1240.89 946.039 1242.29 915.745 1237.22 C 893.149 1233.54 871.329 1226.09 851.193 1215.2 C 807.721 1191.62 775.551 1151.56 761.92 1104.02 C 746.042 1048.87 753.834 982.685 781.61 932.76 z"/>
<path transform="translate(0,0)" fill="rgb(96,165,8)" d="M 781.61 932.76 C 811.347 872.17 863.473 825.513 926.975 802.645 C 945.303 796.068 964.348 791.689 983.708 789.598 C 1011.78 786.535 1057.68 787.939 1087.5 787.979 L 1269.64 788.086 C 1232.91 820.698 1196.63 853.818 1160.82 887.436 L 1072.21 887.388 C 1012.38 887.347 969.937 884.006 922.156 930.349 C 904.619 947.359 893.144 967.616 885.35 990.627 C 884.626 992.764 879.108 1011.17 879.273 1010.85 L 877.9 1010.72 C 877.17 1014.66 876.99 1016.42 876.844 1020.42 C 871.722 1020.07 865.802 1013.13 860.965 1009.85 C 839.677 995.373 814.968 988.961 795.228 972.338 C 789.431 967.457 778.718 963.068 774.653 956.906 C 773.656 951.597 780.787 938.481 783.048 933.243 L 781.61 932.76 z"/>
<path transform="translate(0,0)" fill="rgb(76,147,12)" d="M 335.896 1062.32 C 334.683 1050.43 334.664 1041.92 335.654 1030.06 C 336.468 1035.23 337.045 1040.7 337.68 1045.92 C 384.308 1348.08 647.215 1588.68 945.372 1638.37 C 988.344 1645.53 1028.01 1645.47 1071.34 1642.78 C 1077.93 1641.54 1083.82 1641.27 1090.49 1640.82 C 1083.97 1642.87 1077.4 1644.74 1070.78 1646.43 C 1022.19 1658.51 972.274 1664.52 922.195 1664.31 C 774.031 1664.42 625.306 1611.31 519.533 1505.61 C 420.396 1406.54 358.281 1265.46 340.816 1127.23 C 338.401 1108.12 335.899 1081.48 335.896 1062.32 z"/>
<path transform="translate(0,0)" fill="rgb(96,165,8)" d="M 335.896 1062.32 C 334.683 1050.43 334.664 1041.92 335.654 1030.06 C 336.468 1035.23 337.045 1040.7 337.68 1045.92 C 335.079 1050.49 336.634 1056.53 335.896 1062.32 z"/>
<path transform="translate(0,0)" fill="url(#Gradient3)" d="M 966.209 344.7 C 971.88 345.135 972.383 344.021 976.604 346.705 C 910.537 356.921 846.355 376.893 786.158 405.969 C 665.338 464.512 565.342 558.647 499.616 675.714 C 486.362 699.322 470.991 729.381 462.107 755.056 L 395.777 754.955 C 424.718 681.207 467.153 613.5 520.907 555.302 C 632.647 433.619 800.782 351.59 966.209 344.7 z"/>
<path transform="translate(0,0)" fill="url(#Gradient2)" d="M 960.406 1463.78 C 948.892 1444.14 946.061 1416.17 951.803 1394.24 C 966.845 1336.8 1016.96 1322.07 1064.98 1301.83 C 1083.11 1294.28 1100.3 1284.65 1116.2 1273.13 C 1129.52 1332.34 1136.06 1393.38 1101.72 1447.61 C 1089.46 1467.18 1072.47 1483.34 1052.31 1494.6 C 1026.25 1509.08 1021.36 1510.17 1015.66 1542.18 C 996.393 1470.26 1035.72 1408.6 1074.64 1351.95 C 1027.31 1391.16 992.896 1432.18 985.235 1495.98 C 980.471 1491.43 973.602 1484.89 970.297 1479.14 C 966.805 1476.31 962.406 1467.9 960.406 1463.78 z"/>
<path transform="translate(0,0)" fill="rgb(41,121,12)" d="M 960.406 1463.78 L 961.697 1463.05 L 962.9 1464.5 C 967.731 1470.26 970.036 1469.27 971.26 1477.56 C 970.665 1478.99 971.101 1478.55 970.297 1479.14 C 966.805 1476.31 962.406 1467.9 960.406 1463.78 z"/>
<path transform="translate(0,0)" fill="rgb(0,35,72)" d="M 713.028 1370.59 C 718.009 1370.88 723.429 1371.73 726.422 1376.17 C 733.674 1387.05 737.566 1400.18 742.95 1412.08 C 764.46 1459.63 802.32 1504.36 853.978 1519.38 C 871.604 1524.5 886.269 1526.17 904.148 1522.38 C 893.686 1505.42 869.896 1496.44 855.154 1483.15 C 844.653 1473.68 826.269 1456.45 835.263 1441.16 C 846.37 1434.46 869.307 1455.38 880.806 1461.16 C 910.079 1475.86 936.171 1487.09 959.76 1510.72 C 988.029 1541.35 1002.26 1578.03 1007.39 1619.08 C 860.056 1614.91 745.755 1539.71 712.989 1390.62 C 711.536 1384.01 709.267 1376.49 713.028 1370.59 z"/>
<path transform="translate(0,0)" fill="rgb(0,35,72)" d="M 1325.12 1370.78 C 1328.27 1370.84 1329.76 1370.54 1332.37 1372.28 C 1336.17 1377.54 1330.5 1395.43 1328.81 1402 C 1291.05 1548.08 1180.23 1612.99 1037.46 1619.17 C 1041.89 1580.71 1055.9 1545.86 1080.47 1515.94 C 1112.98 1480.25 1153.8 1470.61 1192.33 1443.53 C 1196.58 1440.54 1202.36 1438.49 1207.57 1439.84 C 1212.81 1443.79 1212.91 1451.45 1210.52 1457.11 C 1197.09 1488.91 1160.01 1496 1141.05 1522.42 C 1206.67 1535.71 1264.21 1481.14 1293.56 1428.52 C 1302.4 1412.67 1311.06 1379.81 1325.12 1370.78 z"/>
<path transform="translate(0,0)" fill="url(#Gradient1)" d="M 864.742 498.634 C 939.76 511.345 1001.15 548.247 1026.58 623.433 C 1052.85 548.565 1111.13 510.359 1187.6 498.904 C 1129.75 543.233 1096.07 590.147 1064.28 655.823 C 1057.31 670.223 1052.1 685.539 1045.67 699.408 C 1045.4 701.739 1038.35 720.637 1037.24 723.713 C 1033.47 734.318 1029.96 745.012 1026.7 755.786 C 1018.12 728.357 1008.31 701.327 997.313 674.775 C 958.462 594.594 934.693 554.985 864.742 498.634 z"/>
<path transform="translate(0,0)" fill="rgb(41,121,12)" d="M 997.313 674.775 L 998.878 673.651 C 1007.78 675.377 1040.74 685.477 1046.56 690.838 C 1046.8 694.198 1045.75 695.965 1045.67 699.408 C 1045.4 701.739 1038.35 720.637 1037.24 723.713 C 1033.47 734.318 1029.96 745.012 1026.7 755.786 C 1018.12 728.357 1008.31 701.327 997.313 674.775 z"/>
<path transform="translate(0,0)" fill="rgb(0,35,72)" d="M 879.496 556.56 C 883.527 559.56 893.637 574.362 896.472 578.753 C 928.114 627.752 947.703 680.453 960.351 737.031 C 929.232 703.004 911.759 684.771 873.016 659.017 C 824.392 628.291 783.643 619.292 727.438 621.328 C 732.894 618.932 738.386 616.617 743.91 614.382 C 788.928 596.319 830.391 594.621 875.344 613.858 C 873.501 592.25 872.704 577.416 879.496 556.56 z"/>
<path transform="translate(0,0)" fill="rgb(0,35,72)" d="M 1172.49 556.641 C 1180.19 565.241 1177.82 602.218 1176.74 614.113 C 1228.51 592.927 1273.26 596.347 1323.39 621.247 C 1266.97 619.427 1229.65 629.115 1180.75 658.586 C 1141.74 683.695 1122.97 703.593 1092.53 737.429 C 1105.37 674.165 1132.61 607.768 1172.49 556.641 z"/>
<path transform="translate(0,0)" fill="rgb(96,165,8)" d="M 1018.82 426.779 C 1044.23 422.424 1068.32 439.582 1072.51 465.014 C 1076.7 490.445 1059.39 514.427 1033.93 518.453 C 1008.7 522.443 984.988 505.321 980.836 480.121 C 976.683 454.921 993.651 431.095 1018.82 426.779 z"/>
<path transform="translate(0,0)" fill="rgb(0,35,72)" d="M 811.054 507.49 C 828.592 504.143 845.578 515.465 849.237 532.941 C 852.897 550.417 841.879 567.602 824.472 571.572 C 812.932 574.204 800.869 570.403 792.924 561.63 C 784.978 552.857 782.386 540.478 786.145 529.254 C 789.903 518.03 799.427 509.709 811.054 507.49 z"/>
<path transform="translate(0,0)" fill="rgb(0,35,72)" d="M 1229.45 507.544 C 1247.02 504.236 1264 515.653 1267.56 533.177 C 1271.12 550.701 1259.94 567.836 1242.47 571.646 C 1230.95 574.159 1218.96 570.271 1211.1 561.471 C 1203.25 552.67 1200.74 540.32 1204.54 529.152 C 1208.34 517.983 1217.86 509.726 1229.45 507.544 z"/>
<path transform="translate(0,0)" fill="rgb(0,35,72)" d="M 740.129 1380.19 C 745.148 1379.66 750.578 1379.4 754.258 1383.61 C 763.317 1393.97 768.708 1407.32 776.071 1419.03 C 786.59 1435.74 799.147 1447.91 813.754 1460.92 C 812.013 1465.8 810.19 1469.46 807.952 1474.09 C 806.108 1476.37 807.297 1475.75 804.597 1476.43 C 784.308 1467.44 741.445 1401.31 740.129 1380.19 z"/>
<path transform="translate(0,0)" fill="rgb(0,35,72)" d="M 1296.08 1379.92 C 1299.72 1379.87 1300.09 1379.66 1303.61 1380.87 L 1304.29 1382.35 C 1292.53 1414.97 1268.55 1456.41 1240.76 1477.64 C 1236.3 1472.06 1234.03 1467.2 1231.33 1460.76 C 1243.36 1449.47 1248.66 1444.25 1259.34 1431.79 C 1271.99 1417.03 1281.83 1388.72 1296.08 1379.92 z"/>
<path transform="translate(0,0)" fill="rgb(16,18,18)" d="M 616.736 428.541 C 605.788 436.486 594.521 445.679 583.934 454.179 L 582.679 453.993 L 583.094 454.765 L 582.12 454.617 C 581.58 455.189 581.78 454.88 581.485 455.519 L 583.374 454.508 L 583.17 453.397 C 592.438 444.011 605.509 432.459 615.663 424.06 L 616.736 428.541 z"/>
<path transform="translate(0,0)" fill="rgb(96,165,8)" d="M 966.209 344.7 C 971.679 343.101 995.475 343.126 1001.45 343.329 C 996.419 344.277 981.375 346.813 976.604 346.705 C 972.383 344.021 971.88 345.135 966.209 344.7 z"/>
</svg>